<?xml version="1.0" standalone="no"?>
<!DOCTYPE svg PUBLIC "-//W3C//DTD SVG 20010904//EN"
 "http://www.w3.org/TR/2001/REC-SVG-20010904/DTD/svg10.dtd">
<svg version="1.0" xmlns="http://www.w3.org/2000/svg"
 width="442.000000pt" height="442.000000pt" viewBox="0 0 442.000000 442.000000"
 preserveAspectRatio="xMidYMid meet">
<metadata>
Created by potrace 1.14, written by Peter Selinger 2001-2017
</metadata>
<g transform="translate(0.000000,442.000000) scale(0.100000,-0.100000)"
fill="#000000" stroke="none">
<path d="M2088 4395 c-2 -1 -39 -5 -83 -9 -422 -33 -878 -225 -1215 -511 -44
-37 -215 -209 -255 -255 -216 -254 -378 -572 -458 -900 -43 -174 -60 -319 -60
-510 -1 -178 2 -212 29 -380 56 -352 212 -698 452 -1005 130 -165 365 -374
552 -489 260 -161 583 -279 850 -311 30 -3 73 -9 95 -12 157 -21 463 -4 661
36 928 190 1636 974 1740 1926 9 89 11 322 3 409 -40 423 -181 792 -428 1126
-85 114 -87 116 -216 245 -355 355 -799 568 -1315 631 -54 6 -346 14 -352 9z
m416 -199 c94 -15 273 -56 326 -75 333 -120 583 -273 806 -497 323 -324 524
-743 578 -1204 13 -108 14 -369 2 -435 -3 -16 -7 -51 -10 -77 -3 -26 -17 -96
-30 -155 -99 -428 -329 -805 -661 -1088 -143 -122 -254 -194 -430 -280 -287
-139 -593 -206 -910 -200 -134 3 -181 7 -330 31 -76 11 -261 64 -355 100 -333
129 -609 331 -860 630 -63 75 -177 258 -234 377 -70 144 -136 340 -162 475 -9
48 -18 96 -20 107 -23 116 -23 471 0 591 3 12 7 37 10 56 36 225 157 534 287
734 160 245 365 451 604 606 94 61 297 166 375 193 176 62 370 108 510 121 41
3 77 8 78 9 10 9 342 -6 426 -19z"/>
<path d="M2008 4165 c-2 -2 -24 -7 -49 -10 -24 -3 -55 -8 -69 -11 -14 -3 -38
-7 -55 -9 -105 -16 -330 -86 -318 -100 5 -4 2 -5 -4 -1 -7 4 -30 0 -50 -9 -21
-10 -49 -22 -63 -27 -14 -6 -32 -14 -40 -19 -8 -4 -39 -20 -68 -34 -29 -15
-50 -31 -47 -36 4 -5 -1 -6 -9 -3 -8 3 -23 -3 -34 -14 -11 -11 -23 -18 -26
-15 -3 4 -14 -2 -23 -13 -10 -10 -25 -20 -33 -22 -8 -2 -17 -7 -20 -11 -3 -4
-33 -27 -67 -50 -35 -24 -60 -48 -57 -53 3 -5 8 -7 11 -5 2 3 20 -1 39 -9 19
-8 34 -11 34 -8 0 4 7 1 15 -6 8 -7 24 -10 35 -7 11 3 18 1 14 -4 -3 -5 1 -9
9 -9 8 0 32 -8 53 -17 22 -9 44 -17 49 -18 13 -2 45 -14 67 -26 10 -5 22 -9
27 -9 5 0 22 -5 38 -12 15 -6 33 -12 38 -14 6 -1 33 -11 62 -22 28 -11 54 -17
57 -14 3 3 6 1 6 -4 0 -8 56 -35 80 -39 3 0 15 -6 28 -13 12 -7 22 -11 22 -8
0 3 30 -9 68 -26 37 -16 81 -36 97 -43 17 -7 52 -23 78 -35 27 -12 57 -22 67
-23 10 -1 17 -4 15 -8 -4 -5 51 -33 85 -43 13 -4 326 -161 330 -166 3 -3 23
-15 45 -26 22 -12 70 -38 108 -59 37 -20 67 -33 67 -29 0 4 9 -3 19 -15 11
-12 23 -21 26 -20 4 1 14 -3 24 -9 67 -46 89 -58 104 -56 9 1 15 -1 13 -5 -3
-4 11 -17 30 -30 29 -20 36 -22 51 -10 16 12 17 12 6 -2 -11 -14 -6 -20 37
-47 l50 -31 -6 92 c-3 51 -6 98 -7 105 0 6 -5 12 -10 12 -5 0 -4 6 2 13 6 8 9
16 6 18 -2 3 -7 34 -11 69 -4 36 -12 68 -18 72 -7 5 -7 8 3 8 8 0 11 6 6 18
-3 9 -8 37 -11 62 -3 25 -6 54 -8 65 -2 11 -12 72 -21 135 -10 63 -23 118 -29
122 -8 5 -7 8 2 8 7 0 10 4 7 10 -3 5 -8 24 -11 42 -3 18 -8 47 -10 63 -3 17
-6 36 -7 43 0 6 -4 12 -9 12 -5 0 -6 4 -3 10 3 5 1 28 -5 50 -6 23 -13 56 -15
74 -3 19 -9 46 -15 62 -6 16 -11 31 -11 34 0 3 -2 22 -6 43 -6 39 -11 45 -40
53 -52 13 -193 44 -223 49 -19 4 -46 9 -60 11 -33 7 -456 15 -462 9z m79 -540
c0 -8 -4 -12 -9 -9 -5 3 -6 10 -3 15 9 13 12 11 12 -6z m-320 -10 c0 -8 -4
-12 -9 -9 -5 3 -6 10 -3 15 9 13 12 11 12 -6z m173 -89 c0 -2 -8 -10 -17 -17
-16 -13 -17 -12 -4 4 13 16 21 21 21 13z"/>
<path d="M2920 4033 c0 -4 5 -27 10 -51 6 -23 13 -59 16 -80 3 -20 9 -50 14
-67 5 -16 12 -47 14 -67 2 -20 7 -45 10 -55 2 -10 7 -34 10 -53 3 -19 8 -46
10 -60 3 -14 7 -41 10 -60 3 -19 7 -44 10 -55 2 -11 7 -47 11 -80 3 -32 8 -62
10 -65 1 -3 6 -34 10 -70 3 -36 8 -78 10 -95 2 -16 5 -45 7 -62 1 -18 5 -33 8
-33 3 0 5 -19 6 -42 1 -81 8 -149 15 -154 5 -3 4 -15 -1 -28 -5 -13 -7 -26 -4
-29 4 -4 17 -175 18 -244 0 -18 4 -33 9 -33 6 0 6 -5 0 -12 -5 -7 -7 -35 -6
-63 5 -107 4 -535 -1 -544 -4 -5 -2 -12 4 -16 6 -4 7 -11 3 -18 -10 -16 -10
-57 0 -57 11 0 111 71 115 82 2 5 9 8 15 8 11 0 47 28 100 74 9 9 20 16 25 17
18 2 81 57 74 64 -4 5 -2 5 4 2 6 -4 24 5 38 18 15 14 30 25 34 25 4 0 24 16
45 35 20 18 37 31 37 27 0 -4 4 -2 8 3 4 6 32 30 62 55 30 25 62 53 71 62 9
10 20 18 24 18 4 0 22 15 40 33 18 17 43 41 57 52 42 33 148 127 205 180 37
36 51 57 48 70 -2 11 -11 46 -19 78 -9 32 -16 61 -16 65 0 4 -5 0 -11 -8 -8
-12 -9 -10 -4 7 4 14 -7 54 -30 110 -57 138 -59 142 -69 136 -5 -3 -6 -1 -2 6
4 6 -10 42 -31 79 -21 37 -41 75 -45 85 -4 9 -12 17 -18 17 -5 0 -9 3 -8 8 5
13 -56 101 -70 102 -7 0 -11 4 -8 9 7 11 -25 55 -106 142 -21 22 -38 45 -38
50 0 6 -4 7 -10 4 -5 -3 -10 1 -10 10 0 9 -9 19 -20 22 -11 3 -20 12 -20 20 0
8 -4 11 -10 8 -5 -3 -10 2 -10 11 0 10 -2 15 -5 12 -3 -3 -21 9 -39 26 -58 55
-163 137 -241 188 -62 40 -180 106 -196 110 -8 2 -16 6 -19 9 -6 7 -102 52
-110 51 -3 0 -13 4 -22 9 -10 5 -18 6 -18 2z m290 -387 c0 -2 -7 -7 -16 -10
-8 -3 -12 -2 -9 4 6 10 25 14 25 6z m180 -20 c0 -2 -7 -7 -16 -10 -8 -3 -12
-2 -9 4 6 10 25 14 25 6z m-256 -564 c3 -5 -1 -9 -9 -9 -8 0 -12 4 -9 9 3 4 7
8 9 8 2 0 6 -4 9 -8z m560 -80 c3 -5 -1 -9 -9 -9 -8 0 -12 4 -9 9 3 4 7 8 9 8
2 0 6 -4 9 -8z m201 -482 c-3 -5 -12 -10 -18 -10 -7 0 -6 4 3 10 19 12 23 12
15 0z"/>
<path d="M823 3603 c-18 -18 -33 -38 -33 -44 0 -6 -3 -8 -7 -6 -8 4 -42 -27
-44 -40 -1 -5 -10 -17 -20 -28 -66 -73 -81 -91 -96 -116 -10 -16 -21 -29 -25
-29 -4 0 -8 -5 -8 -12 0 -6 -11 -26 -25 -44 -14 -18 -25 -37 -25 -43 0 -6 -5
-11 -11 -11 -5 0 -7 -4 -4 -10 3 -5 2 -10 -3 -10 -9 0 -30 -39 -28 -51 0 -4
-6 -15 -14 -25 -29 -36 -51 -84 -44 -96 4 -6 3 -8 -3 -5 -10 6 -43 -64 -43
-91 0 -7 -5 -12 -11 -12 -7 0 -9 -10 -7 -25 3 -13 2 -23 -2 -22 -5 1 -9 -2
-10 -8 -1 -5 -7 -18 -12 -29 -6 -10 -12 -33 -15 -50 -3 -17 -8 -35 -12 -41
-14 -18 -60 -236 -66 -315 -2 -25 -5 -45 -5 -45 -2 0 -10 -96 -13 -157 -1 -27
2 -48 7 -48 5 0 3 -6 -3 -13 -6 -8 -8 -17 -5 -20 4 -4 7 -33 6 -67 0 -33 3
-60 7 -60 3 0 6 -20 7 -45 0 -25 2 -57 2 -71 l2 -26 37 36 c21 20 41 36 45 36
3 0 10 9 13 20 4 11 10 18 15 15 5 -3 15 3 22 15 7 11 17 20 21 20 5 0 26 18
48 40 22 22 42 40 45 40 6 0 39 28 91 77 12 12 23 20 23 18 0 -3 11 5 25 17
20 18 23 24 12 37 -10 14 -10 14 4 4 13 -11 26 -5 80 38 35 29 66 54 69 58 3
3 12 11 21 16 18 11 126 92 146 109 35 30 43 36 53 36 6 0 13 7 16 15 4 8 11
15 18 15 6 0 25 11 41 25 47 39 48 39 88 64 21 13 44 30 52 38 8 8 15 11 15 6
0 -4 4 -3 8 2 4 6 39 30 77 55 39 25 73 48 76 53 3 5 9 8 12 8 11 -1 67 34 67
42 0 4 7 7 15 7 8 0 15 3 15 8 0 4 23 18 50 31 28 14 50 27 50 31 0 3 15 11
33 19 17 8 34 17 37 20 8 10 64 42 83 48 11 3 16 11 12 21 -4 12 -3 12 8 3 11
-9 17 -8 27 4 7 8 18 15 26 15 7 0 19 6 26 13 23 21 75 47 82 40 3 -3 6 -2 6
4 0 5 12 16 28 23 33 17 32 16 60 25 21 7 21 8 5 20 -10 7 -21 11 -25 9 -5 -3
-8 0 -8 5 0 6 -9 11 -20 11 -11 0 -20 4 -20 10 0 5 -3 9 -7 8 -5 0 -26 7 -48
17 -22 10 -43 18 -47 17 -5 -1 -8 3 -8 10 0 6 -3 9 -6 5 -3 -3 -22 3 -41 14
-19 11 -38 17 -44 14 -5 -4 -9 -1 -9 4 0 6 -5 11 -11 11 -6 0 -33 11 -60 25
-27 13 -49 21 -49 17 0 -4 -5 0 -10 8 -9 13 -10 13 -10 0 -1 -12 -3 -11 -11 3
-6 9 -14 15 -20 12 -5 -4 -16 1 -24 9 -9 8 -32 18 -53 22 -20 4 -44 12 -52 19
-12 10 -39 22 -70 30 -3 1 -12 4 -20 8 -8 3 -49 17 -90 32 -41 15 -91 33 -110
40 -87 34 -240 76 -251 69 -8 -4 -10 -3 -5 4 4 7 2 13 -3 13 -14 2 -30 6 -33
8 -17 14 -48 3 -75 -26z m145 -288 c-3 -3 -9 2 -12 12 -6 14 -5 15 5 6 7 -7
10 -15 7 -18z m943 -172 c13 -16 12 -17 -3 -4 -17 13 -22 21 -14 21 2 0 10 -8
17 -17z m-611 -97 c0 -2 -8 -10 -17 -17 -16 -13 -17 -12 -4 4 13 16 21 21 21
13z m-336 -92 c3 -8 2 -12 -4 -9 -6 3 -10 10 -10 16 0 14 7 11 14 -7z m-483
-647 c-10 -9 -11 -8 -5 6 3 10 9 15 12 12 3 -3 0 -11 -7 -18z"/>
<path d="M1944 2782 c-62 -11 -98 -27 -129 -57 -19 -18 -35 -37 -35 -42 0 -4
-4 -25 -9 -45 -6 -26 -6 -36 2 -31 6 4 7 1 1 -8 -7 -12 -11 -62 -15 -199 -1
-26 -21 -84 -34 -96 -6 -7 -30 -18 -53 -25 -37 -11 -41 -15 -44 -48 -2 -20 -1
-53 1 -73 3 -33 7 -38 28 -38 36 0 61 -16 79 -52 20 -39 23 -56 28 -198 4
-113 16 -161 48 -201 14 -17 78 -53 78 -44 0 3 10 1 21 -6 17 -9 20 -8 14 3
-6 10 -5 11 6 1 7 -7 36 -13 65 -13 l52 0 -1 50 c0 29 -5 50 -11 50 -6 0 -5 4
3 9 8 5 11 16 7 26 -5 13 -15 16 -41 13 -19 -2 -35 0 -35 4 0 4 -6 8 -13 8
-21 0 -34 38 -37 105 -8 204 -11 217 -62 277 l-39 48 36 36 c21 21 34 42 31
51 -3 8 -2 12 3 9 14 -9 30 70 17 85 -7 8 -7 10 0 6 7 -4 11 10 13 40 0 25 3
49 6 53 3 5 0 10 -7 12 -7 3 -8 9 -3 18 5 7 9 31 9 52 2 46 20 66 68 72 21 2
41 7 46 10 7 4 10 113 3 136 -1 6 -67 7 -97 2z"/>
<path d="M2369 2782 c-1 -4 -2 -37 -3 -74 -1 -55 2 -68 14 -69 91 -4 109 -20
111 -99 3 -150 12 -217 34 -260 20 -38 66 -80 79 -74 6 3 2 -2 -9 -11 -11 -9
-19 -21 -17 -26 1 -6 -2 -8 -6 -5 -18 11 -58 -53 -67 -109 -13 -73 -14 -125
-2 -125 9 0 9 -2 0 -8 -7 -4 -13 -36 -14 -74 -2 -62 -4 -68 -28 -77 -14 -6
-41 -12 -58 -13 -18 -1 -33 -5 -34 -8 0 -3 -1 -34 -2 -70 l-1 -65 64 -1 c72 0
111 9 153 38 48 34 58 68 67 232 4 83 13 163 20 177 13 29 58 59 89 59 13 0
21 7 22 18 7 110 4 136 -18 138 -7 1 -21 2 -31 3 -18 1 -73 41 -58 41 3 0 0
12 -7 28 -9 17 -14 72 -16 152 -1 68 -8 133 -13 145 -6 11 -11 21 -10 23 7 9
-2 26 -28 56 -21 24 -45 37 -78 45 -59 14 -152 21 -153 13z m198 -157 c0 -8
-4 -12 -9 -9 -5 3 -6 10 -3 15 9 13 12 11 12 -6z"/>
<path d="M1278 2551 c-16 -10 -25 -21 -21 -25 4 -4 0 -4 -10 0 -11 4 -19 0
-23 -10 -3 -9 -12 -16 -19 -16 -7 0 -16 -7 -19 -16 -3 -8 -10 -12 -16 -9 -5 3
-10 2 -10 -2 0 -5 -18 -19 -40 -33 -22 -14 -40 -28 -40 -32 0 -4 -8 -9 -19
-13 -10 -3 -33 -19 -50 -35 -17 -17 -33 -30 -36 -30 -14 0 -84 -64 -79 -71 3
-5 -2 -6 -10 -3 -9 4 -18 -1 -22 -10 -3 -9 -10 -16 -15 -16 -9 0 -37 -21 -71
-52 -10 -10 -22 -18 -26 -18 -4 0 -14 -9 -22 -20 -8 -11 -18 -20 -22 -20 -4 0
-16 -8 -26 -17 -19 -19 -114 -101 -165 -143 -17 -14 -52 -46 -79 -72 -26 -26
-48 -44 -48 -41 0 3 -12 -7 -27 -23 -15 -16 -26 -33 -25 -37 1 -5 -2 -6 -7 -3
-14 9 -40 -33 -35 -55 2 -10 7 -29 10 -41 3 -13 7 -30 9 -38 2 -8 4 -16 5 -17
2 -2 3 -6 5 -10 2 -9 6 -21 41 -113 13 -36 24 -71 24 -78 0 -6 5 -12 10 -12 6
0 10 -7 10 -15 0 -22 22 -65 31 -60 4 3 11 0 15 -6 4 -8 3 -9 -4 -5 -7 4 -12
4 -12 1 0 -12 40 -84 50 -90 6 -4 8 -11 5 -16 -4 -5 -1 -9 4 -9 6 0 11 -5 11
-12 0 -13 51 -91 63 -96 4 -2 7 -9 7 -16 0 -7 11 -25 24 -39 13 -14 26 -30 27
-35 6 -13 69 -90 107 -129 17 -19 32 -38 32 -42 0 -15 27 -20 41 -8 11 10 11
9 1 -4 -10 -14 -5 -23 30 -57 58 -55 100 -92 138 -122 17 -14 44 -35 58 -47
15 -13 33 -23 40 -23 6 0 12 -4 12 -10 0 -5 5 -10 10 -10 6 0 20 -9 32 -20 12
-11 28 -20 35 -20 7 0 13 -3 13 -8 0 -4 15 -13 33 -21 17 -8 34 -17 37 -21 10
-13 148 -79 154 -73 3 4 6 1 6 -6 0 -7 5 -9 10 -6 6 3 10 2 10 -3 0 -5 16 -13
35 -19 41 -13 41 -12 21 67 -8 30 -17 71 -20 90 -11 68 -16 95 -22 120 -4 14
-8 38 -10 55 -2 16 -7 37 -9 46 -3 9 -8 34 -10 55 -7 49 -15 95 -20 114 -4 14
-14 89 -21 155 -1 17 -5 46 -8 65 -3 19 -8 60 -11 90 -3 30 -8 66 -10 80 -5
33 -13 116 -20 215 -4 44 -8 96 -10 115 -2 19 -4 66 -4 103 -1 52 -4 66 -13
61 -10 -5 -10 -4 -1 6 8 8 9 20 3 36 -6 16 -6 24 1 24 6 0 8 9 4 19 -6 20 -7
550 -1 634 2 26 3 47 2 46 -1 0 -13 -8 -28 -18z m-354 -1009 c3 -5 -1 -9 -9
-9 -8 0 -12 4 -9 9 3 4 7 8 9 8 2 0 6 -4 9 -8z m181 -10 c-3 -3 -11 0 -18 7
-9 10 -8 11 6 5 10 -3 15 -9 12 -12z m-169 -634 c3 -4 -1 -5 -10 -4 -8 1 -18
5 -22 8 -3 4 1 5 10 4 8 -1 18 -5 22 -8z"/>
<path d="M4135 2490 c-34 -36 -137 -130 -142 -130 -2 0 -19 -13 -36 -29 -90
-84 -107 -99 -107 -94 0 2 -7 -3 -16 -11 -8 -9 -13 -20 -9 -26 3 -5 0 -7 -8
-4 -8 3 -26 -5 -40 -18 -42 -38 -62 -53 -70 -55 -5 -1 -14 -8 -20 -16 -7 -7
-31 -28 -55 -46 -23 -18 -40 -36 -37 -41 3 -4 -5 -6 -17 -2 -12 3 -19 1 -15
-4 3 -5 -24 -30 -61 -54 -61 -41 -78 -54 -123 -95 -9 -8 -21 -15 -27 -15 -7 0
-12 -4 -12 -9 0 -5 -10 -11 -21 -14 -15 -4 -20 -11 -15 -23 5 -13 4 -14 -7 -6
-11 9 -19 6 -37 -13 -13 -14 -27 -25 -32 -25 -16 0 -87 -58 -80 -65 4 -5 2 -5
-5 -2 -6 4 -18 1 -26 -7 -8 -8 -17 -12 -21 -9 -3 4 -6 1 -6 -5 0 -7 -5 -12
-11 -12 -6 0 -28 -13 -48 -28 -20 -15 -48 -34 -63 -41 -16 -8 -28 -18 -28 -23
0 -5 -4 -6 -10 -3 -5 3 -10 1 -10 -5 0 -6 -4 -8 -10 -5 -5 3 -10 3 -10 -2 0
-4 -24 -21 -53 -37 -28 -16 -54 -32 -57 -35 -3 -3 -14 -11 -25 -18 -11 -6 -19
-17 -17 -25 3 -10 1 -10 -9 -1 -10 10 -16 10 -28 -1 -9 -7 -36 -24 -61 -37
-25 -13 -47 -27 -50 -30 -3 -4 -15 -9 -27 -13 -13 -4 -23 -12 -23 -17 0 -5 -9
-9 -20 -9 -11 0 -20 -3 -20 -7 0 -5 -20 -17 -45 -28 -25 -11 -45 -23 -45 -27
0 -5 -3 -7 -7 -6 -12 2 -63 -24 -63 -33 0 -4 22 -15 50 -25 27 -10 50 -21 50
-24 0 -4 6 -7 13 -7 6 0 50 -19 97 -42 47 -22 91 -41 97 -41 7 0 13 -5 13 -10
0 -6 3 -9 8 -9 4 1 10 0 15 -1 4 -1 10 -3 15 -4 4 -1 18 -8 32 -16 14 -7 26
-12 28 -11 1 1 23 -8 49 -19 26 -11 53 -18 60 -15 8 2 12 1 9 -4 -3 -4 14 -14
37 -21 23 -8 47 -17 52 -21 6 -3 51 -21 100 -38 50 -18 97 -35 105 -38 16 -6
33 -11 53 -16 6 -1 17 -5 22 -8 12 -7 186 -64 230 -75 36 -9 36 -9 57 -18 20
-9 113 78 102 96 -4 6 -3 8 3 5 6 -4 25 11 43 33 17 21 43 51 56 65 14 15 32
39 42 53 9 15 22 31 29 35 8 5 11 12 8 18 -4 5 -1 9 5 9 6 0 15 10 20 23 11
25 32 60 41 67 21 17 165 321 175 368 1 8 6 21 10 30 9 20 7 15 23 72 7 25 15
56 18 69 2 13 8 32 13 41 5 10 7 20 3 23 -3 4 -2 12 4 19 11 15 11 28 -1 47
-6 10 -5 12 2 7 11 -7 17 6 13 28 -1 5 3 22 8 37 7 21 7 29 -2 29 -9 0 -9 2
-1 8 33 21 35 483 2 503 -6 4 -6 8 -1 10 5 2 7 14 4 27 l-6 24 -20 -22z m-765
-784 c0 -3 -4 -8 -10 -11 -5 -3 -10 -1 -10 4 0 6 5 11 10 11 6 0 10 -2 10 -4z
m475 -445 c3 -5 2 -12 -3 -15 -5 -3 -9 1 -9 9 0 17 3 19 12 6z m-105 -117 c0
-8 -19 -13 -24 -6 -3 5 1 9 9 9 8 0 15 -2 15 -3z"/>
<path d="M1439 1594 c-1 -5 0 -13 1 -19 1 -5 3 -32 5 -60 6 -95 16 -197 31
-297 2 -18 6 -53 9 -78 3 -25 7 -54 9 -65 2 -12 7 -48 11 -80 4 -33 9 -69 11
-80 10 -51 37 -202 39 -215 1 -8 5 -31 9 -50 4 -19 9 -46 11 -60 2 -14 9 -45
15 -70 6 -25 13 -56 15 -70 3 -14 8 -32 11 -40 4 -8 8 -30 10 -48 4 -41 11
-52 33 -52 10 0 21 -3 25 -7 3 -4 12 -8 19 -9 7 -1 46 -10 87 -19 107 -23 110
-24 150 -29 182 -24 400 -24 522 -1 12 3 37 6 55 7 18 1 33 6 33 11 0 4 4 6 8
3 17 -10 263 53 352 91 19 8 44 18 55 23 11 5 52 23 90 41 39 18 73 32 78 31
4 -1 7 2 7 8 0 5 7 10 15 10 8 0 15 5 15 10 0 6 7 10 15 10 14 0 70 34 85 51
3 3 13 8 23 12 11 4 15 12 11 18 -4 8 -3 9 4 5 11 -6 82 38 90 57 2 4 8 7 14
7 5 0 16 7 24 15 13 12 9 16 -28 26 -24 6 -52 15 -63 19 -11 5 -38 14 -60 21
-22 6 -50 16 -61 21 -12 6 -33 11 -47 11 -14 1 -23 5 -20 10 4 6 -20 11 -39 8
-5 0 -8 4 -8 11 0 6 -3 9 -6 5 -4 -3 -19 0 -34 8 -15 8 -30 11 -34 8 -3 -4 -6
0 -6 7 0 7 -3 10 -7 7 -3 -4 -12 -2 -20 4 -7 6 -22 9 -33 6 -11 -3 -18 -1 -15
3 4 7 -14 17 -45 25 -3 1 -18 7 -33 13 -16 7 -31 12 -34 12 -3 0 -19 6 -36 14
-18 8 -61 27 -97 42 -36 15 -98 42 -138 60 -40 19 -79 34 -87 34 -8 0 -15 5
-15 10 0 6 -7 10 -15 10 -8 0 -30 9 -50 20 -20 11 -42 20 -49 20 -8 0 -16 3
-18 8 -4 9 -110 58 -116 54 -3 -2 -8 0 -11 5 -3 5 -41 26 -83 47 -43 21 -80
42 -84 47 -3 5 -10 7 -15 4 -5 -4 -9 -1 -9 4 0 6 -7 11 -15 11 -8 0 -15 4 -15
8 0 5 -6 9 -12 9 -7 0 -41 17 -76 37 -34 20 -67 34 -72 31 -6 -4 -9 -3 -8 2 2
4 -1 9 -5 10 -4 1 -15 9 -23 18 -9 8 -22 15 -30 15 -8 0 -14 5 -14 12 0 6 -3
8 -7 5 -3 -4 -21 5 -40 19 -18 14 -38 22 -45 18 -7 -4 -8 -3 -4 4 4 7 1 12 -8
12 -9 0 -16 4 -16 8 0 5 -18 17 -40 28 -22 10 -40 23 -40 27 0 5 -4 5 -10 2
-5 -3 -10 -2 -10 3 0 5 -12 15 -27 22 -16 8 -36 21 -45 29 -10 8 -19 10 -19 5z
m326 -253 c3 -5 2 -12 -3 -15 -5 -3 -9 1 -9 9 0 17 3 19 12 6z m165 -421 c0
-5 -2 -10 -4 -10 -3 0 -8 5 -11 10 -3 6 -1 10 4 10 6 0 11 -4 11 -10z m1130
-176 c0 -8 -19 -13 -24 -6 -3 5 1 9 9 9 8 0 15 -2 15 -3z m-499 -77 c-10 -9
-11 -8 -5 6 3 10 9 15 12 12 3 -3 0 -11 -7 -18z m-811 -87 c0 -5 -5 -10 -11
-10 -5 0 -7 5 -4 10 3 6 8 10 11 10 2 0 4 -4 4 -10z m485 0 c-3 -5 -12 -10
-18 -10 -7 0 -6 4 3 10 19 12 23 12 15 0z"/>
</g>
</svg>
